<?xml version="1.0" standalone="no"?>
<!DOCTYPE svg PUBLIC "-//W3C//DTD SVG 20010904//EN"
 "http://www.w3.org/TR/2001/REC-SVG-20010904/DTD/svg10.dtd">
<svg version="1.0" xmlns="http://www.w3.org/2000/svg"
 width="500.000000pt" height="500.000000pt" viewBox="0 0 500.000000 500.000000"
 preserveAspectRatio="xMidYMid meet">
<metadata>
Created by potrace 1.14, written by Peter Selinger 2001-2017
</metadata>
<g transform="translate(0.000000,500.000000) scale(0.100000,-0.100000)"
fill="#000000" stroke="none">
<path d="M2397 3786 c-62 -17 -97 -43 -119 -87 -21 -43 -11 -95 27 -131 16
-15 25 -34 25 -55 0 -39 -7 -40 -63 -11 -30 15 -61 22 -107 22 l-65 1 -19 -40
c-25 -54 -31 -105 -17 -161 7 -29 8 -50 2 -57 -14 -19 -41 -117 -41 -154 0
-29 -3 -33 -27 -33 -38 0 -73 -10 -73 -21 0 -5 22 -9 49 -9 54 0 55 -1 65 -43
6 -25 3 -29 -24 -38 -42 -15 -39 -33 5 -26 30 5 37 2 57 -25 21 -30 21 -32 4
-42 -76 -46 -83 -78 -9 -39 l48 26 39 -27 c21 -14 43 -26 47 -26 20 0 7 -23
-36 -63 -39 -38 -45 -49 -45 -86 0 -44 33 -91 65 -91 19 0 19 -2 -1 -48 -35
-81 -35 -81 -13 -101 12 -11 25 -41 30 -67 19 -102 59 -130 184 -127 49 1 104
1 120 1 170 -4 184 -3 212 18 40 30 69 77 77 123 4 26 13 44 26 51 17 9 20 17
14 45 -5 27 -2 35 16 45 32 17 60 70 60 113 0 45 -44 97 -82 97 -18 0 -26 8
-34 35 -11 34 -11 34 44 72 30 21 61 42 68 48 9 6 25 3 50 -8 46 -22 71 -7 28
17 -55 29 -55 30 -43 64 10 29 14 32 55 32 55 0 57 16 3 25 -39 7 -41 8 -35
37 3 17 6 34 6 39 0 5 23 9 50 9 28 0 50 4 50 9 0 11 -35 21 -75 21 -30 0 -31
2 -43 68 -9 49 -10 76 -2 96 15 40 12 70 -9 97 -10 13 -21 46 -23 73 -7 58
-35 100 -72 104 -15 2 -57 -7 -93 -19 -62 -20 -67 -21 -79 -5 -10 15 -8 24 13
54 20 30 24 46 20 80 -3 24 -12 51 -22 62 -50 55 -193 83 -288 56z m218 -47
c93 -47 82 -159 -16 -159 -32 0 -39 3 -39 20 0 24 -9 26 -25 3 -18 -24 -83
-26 -96 -2 -13 25 -33 24 -26 -1 3 -13 -1 -21 -14 -25 -10 -4 -19 -11 -19 -17
0 -6 24 -8 70 -3 39 4 70 3 70 -1 -1 -5 -9 -18 -18 -30 -13 -15 -34 -22 -80
-27 l-62 -7 0 31 c0 21 -10 43 -30 66 -37 41 -41 100 -10 128 62 56 207 68
295 24z m264 -250 c20 -59 16 -66 -41 -71 -74 -8 -144 29 -122 63 10 17 69 37
111 38 37 1 42 -2 52 -30z m-620 -23 c41 -21 54 -24 82 -16 19 6 55 10 80 10
l46 0 -10 -43 c-20 -89 46 -154 127 -127 31 10 37 8 61 -15 16 -14 35 -25 43
-25 8 0 32 -18 52 -40 44 -47 90 -54 134 -19 33 26 43 18 52 -38 6 -40 5 -42
-22 -45 -39 -4 -44 -28 -5 -28 28 0 31 -3 31 -30 0 -23 -4 -30 -20 -30 -22 0
-26 -10 -9 -27 5 -5 7 -22 3 -37 -4 -19 -13 -26 -30 -26 -20 0 -23 -4 -19 -23
5 -19 -1 -28 -32 -50 -55 -38 -81 -45 -148 -40 -33 2 -94 -2 -135 -11 l-75
-14 -45 44 c-50 49 -88 57 -111 25 -13 -18 -43 -25 -90 -22 -9 1 -28 10 -43
22 -25 20 -26 22 -9 35 19 14 14 17 -27 15 -34 -2 -60 37 -36 54 22 17 20 25
-8 25 -16 0 -26 7 -30 23 -11 40 -7 49 19 45 13 -2 25 2 27 7 2 6 -10 11 -26
13 -28 4 -28 4 -24 61 3 37 15 79 34 117 16 32 31 62 32 66 2 5 -6 8 -17 8
-19 0 -21 6 -21 56 0 35 6 67 18 86 16 28 20 29 59 24 24 -3 65 -17 92 -30z
m145 -655 c44 -45 47 -51 33 -65 -13 -14 -16 -13 -21 8 -8 34 -45 76 -67 76
-19 0 -25 11 -12 23 11 12 18 8 67 -42z m-54 -30 c35 -26 33 -86 -4 -118 -15
-13 -31 -23 -35 -23 -15 0 -81 107 -76 124 3 9 7 23 10 32 7 21 68 12 105 -15z
m327 1 c-9 -4 -26 -21 -36 -38 -20 -34 -70 -51 -99 -35 -23 12 -56 50 -50 56
3 3 25 9 49 14 53 11 161 13 136 3z m79 -17 c19 -14 19 -14 -2 -15 -12 0 -24
7 -28 15 -7 19 5 19 30 0z m-46 -20 c0 -8 9 -15 20 -15 43 0 10 -30 -60 -55
-21 -7 -41 -11 -44 -8 -3 4 5 21 19 39 14 18 25 37 25 43 0 6 9 11 20 11 11 0
20 -7 20 -15z m-467 -59 c41 -60 44 -71 21 -80 -22 -8 -77 -7 -90 2 -13 8 -34
46 -34 61 0 11 49 71 58 71 4 0 24 -25 45 -54z m243 33 c8 -14 -11 -33 -25
-25 -11 7 -4 36 9 36 5 0 12 -5 16 -11z m-42 -43 c34 -31 33 -36 -8 -36 -40 0
-47 8 -39 38 7 28 16 28 47 -2z m420 1 c27 -20 24 -92 -5 -123 -24 -26 -67
-32 -87 -12 -15 15 -16 54 -2 63 6 3 10 19 10 34 0 47 44 67 84 38z m-328 -34
c-4 -4 -11 -1 -16 7 -16 25 -11 35 7 17 9 -9 13 -20 9 -24z m218 10 c-4 -16
-11 -36 -15 -45 -5 -9 -9 -28 -9 -41 0 -38 -59 -84 -117 -93 -91 -13 -177 27
-220 102 l-22 39 80 -4 c87 -3 202 18 259 49 47 26 52 25 44 -7z m-149 7 c3
-5 -1 -10 -9 -10 -8 0 -18 5 -21 10 -3 6 1 10 9 10 8 0 18 -4 21 -10z m-246
-89 c25 -49 94 -108 140 -121 86 -24 166 -8 228 44 l32 27 21 -33 20 -33 -29
-12 c-52 -22 -211 -36 -337 -30 -105 6 -221 22 -233 33 -2 2 6 30 19 61 19 48
30 62 64 79 55 29 53 29 75 -15z m54 -197 c37 -3 67 -10 67 -16 0 -14 -183 -5
-222 11 -47 18 -31 28 30 20 31 -5 87 -11 125 -15z m347 7 c0 -12 -113 -31
-188 -31 -81 0 -80 17 1 24 34 3 76 8 92 9 61 8 95 7 95 -2z m-352 -67 c66 -6
72 -8 72 -29 0 -27 -22 -35 -97 -35 -60 0 -94 11 -123 40 -33 33 -26 43 28 37
26 -4 80 -9 120 -13z m342 7 c0 -18 -61 -60 -96 -67 -48 -9 -125 1 -135 17
-19 30 -8 36 84 46 128 14 147 14 147 4z"/>
<path d="M2234 3045 c-8 -33 1 -55 24 -55 28 0 44 24 36 54 -9 36 -51 37 -60
1z"/>
<path d="M2704 3056 c-3 -8 -4 -25 -2 -38 2 -17 9 -23 28 -23 22 0 25 4 25 35
0 29 -4 36 -23 38 -13 2 -24 -3 -28 -12z"/>
<path d="M2462 2978 c-18 -18 -14 -46 9 -58 46 -25 107 21 73 54 -18 19 -65
21 -82 4z m63 -28 c0 -8 -7 -16 -15 -17 -22 -4 -44 13 -35 26 10 17 50 9 50
-9z"/>
<path d="M1636 1588 c-3 -13 -4 -42 -4 -65 l1 -43 54 0 c60 0 73 17 16 22 -50
4 -53 32 -4 36 35 4 69 28 56 40 -4 4 -10 1 -12 -5 -3 -8 -22 -13 -45 -13 -51
0 -47 24 5 28 55 5 45 22 -13 22 -43 0 -50 -3 -54 -22z"/>
<path d="M1820 1601 c0 -13 20 -18 47 -13 36 7 27 22 -12 22 -19 0 -35 -4 -35
-9z"/>
<path d="M1950 1560 c0 -27 5 -50 10 -50 6 0 10 23 10 50 0 28 -4 50 -10 50
-5 0 -10 -22 -10 -50z"/>
<path d="M2133 1598 c2 -7 11 -12 20 -12 10 1 26 2 37 3 38 2 20 21 -21 21
-28 0 -39 -4 -36 -12z"/>
<path d="M2370 1598 c0 -17 92 -16 98 0 2 8 -12 12 -47 12 -34 0 -51 -4 -51
-12z"/>
<path d="M2520 1601 c0 -11 49 -21 67 -14 27 10 12 23 -27 23 -22 0 -40 -4
-40 -9z"/>
<path d="M2650 1560 c0 -38 4 -50 15 -50 11 0 15 12 15 50 0 38 -4 50 -15 50
-11 0 -15 -12 -15 -50z"/>
<path d="M2840 1601 c0 -12 35 -17 73 -12 46 6 30 21 -23 21 -27 0 -50 -4 -50
-9z"/>
<path d="M2992 1598 c4 -11 14 -13 63 -9 34 2 12 21 -26 21 -28 0 -39 -4 -37
-12z"/>
<path d="M3120 1545 l0 -65 55 0 c30 0 55 5 55 10 0 6 -18 10 -40 10 l-40 0 0
45 c0 31 4 45 13 44 31 -4 67 2 67 11 0 6 -25 10 -55 10 l-55 0 0 -65z"/>
<path d="M3310 1601 c0 -10 40 -19 58 -13 25 8 11 22 -23 22 -19 0 -35 -4 -35
-9z"/>
<path d="M1790 1545 c0 -34 12 -46 25 -24 9 14 -3 59 -15 59 -6 0 -10 -16 -10
-35z"/>
<path d="M1900 1545 c0 -19 5 -35 10 -35 6 0 10 16 10 35 0 19 -4 35 -10 35
-5 0 -10 -16 -10 -35z"/>
<path d="M2102 1548 c4 -46 28 -49 28 -4 0 26 -4 36 -16 36 -11 0 -14 -8 -12
-32z"/>
<path d="M2210 1545 c0 -19 5 -35 10 -35 6 0 10 16 10 35 0 19 -4 35 -10 35
-5 0 -10 -16 -10 -35z"/>
<path d="M2340 1570 c0 -5 5 -10 10 -10 6 0 10 5 10 10 0 6 -4 10 -10 10 -5 0
-10 -4 -10 -10z"/>
<path d="M2500 1530 c0 -46 13 -67 22 -38 6 18 78 20 78 2 0 -17 20 -19 21 -1
5 69 3 87 -8 87 -7 0 -13 -11 -13 -25 0 -22 -4 -25 -40 -25 -36 0 -40 3 -40
25 0 14 -4 25 -10 25 -5 0 -10 -22 -10 -50z"/>
<path d="M2810 1545 c0 -19 5 -35 10 -35 6 0 10 16 10 35 0 19 -4 35 -10 35
-5 0 -10 -16 -10 -35z"/>
<path d="M2970 1530 c0 -46 13 -67 22 -38 6 17 78 18 78 1 0 -7 5 -13 10 -13
6 0 10 18 10 40 0 22 0 43 1 47 0 4 -4 9 -10 11 -6 2 -11 -8 -11 -22 0 -24 -4
-26 -40 -26 -36 0 -40 3 -40 25 0 14 -4 25 -10 25 -5 0 -10 -22 -10 -50z"/>
<path d="M3230 1545 c0 -19 5 -35 10 -35 6 0 10 16 10 35 0 19 -4 35 -10 35
-5 0 -10 -16 -10 -35z"/>
<path d="M3280 1544 c0 -45 24 -42 28 4 2 24 -1 32 -12 32 -12 0 -16 -10 -16
-36z"/>
<path d="M3390 1545 c0 -19 5 -35 10 -35 6 0 10 16 10 35 0 19 -4 35 -10 35
-5 0 -10 -16 -10 -35z"/>
<path d="M2370 1546 c0 -8 8 -13 18 -11 9 2 25 4 35 4 33 2 17 21 -18 21 -23
0 -35 -5 -35 -14z"/>
<path d="M2860 1550 c0 -5 11 -10 25 -10 18 0 25 -5 25 -20 0 -16 -7 -20 -35
-20 -19 0 -35 -4 -35 -10 0 -5 23 -10 50 -10 l50 0 0 40 0 40 -40 0 c-22 0
-40 -4 -40 -10z"/>
<path d="M1740 1520 c0 -5 5 -10 10 -10 6 0 10 5 10 10 0 6 -4 10 -10 10 -5 0
-10 -4 -10 -10z"/>
<path d="M2440 1520 c0 -5 7 -10 15 -10 8 0 15 5 15 10 0 6 -7 10 -15 10 -8 0
-15 -4 -15 -10z"/>
<path d="M2345 1501 c-15 -14 0 -21 45 -21 28 0 50 5 50 10 0 6 -3 10 -7 11
-42 4 -84 4 -88 0z"/>
<path d="M1820 1490 c0 -5 16 -10 35 -10 19 0 35 5 35 10 0 6 -16 10 -35 10
-19 0 -35 -4 -35 -10z"/>
<path d="M1970 1490 c0 -5 22 -10 49 -10 28 0 53 5 56 10 4 6 -15 10 -49 10
-31 0 -56 -4 -56 -10z"/>
<path d="M2130 1490 c0 -5 18 -10 40 -10 22 0 40 5 40 10 0 6 -18 10 -40 10
-22 0 -40 -4 -40 -10z"/>
<path d="M2680 1490 c0 -5 23 -10 50 -10 28 0 50 5 50 10 0 6 -22 10 -50 10
-27 0 -50 -4 -50 -10z"/>
<path d="M3310 1490 c0 -5 16 -10 35 -10 19 0 35 5 35 10 0 6 -16 10 -35 10
-19 0 -35 -4 -35 -10z"/>
</g>
</svg>
